<?xml version="1.0" encoding="iso-8859-1"?>
<!-- Uploaded to: SVG Repo, www.svgrepo.com, Generator: SVG Repo Mixer Tools -->
<svg fill="#fff" height="80px" width="80px" version="1.1" id="Layer_1" xmlns="http://www.w3.org/2000/svg" xmlns:xlink="http://www.w3.org/1999/xlink" 
	 viewBox="0 0 511.998 511.998" xml:space="preserve">
<g>
	<g>
		<path d="M440.06,81.654h-58.266V58.208C381.794,26.112,355.681,0,323.586,0H188.414c-32.096,0-58.208,26.112-58.208,58.208v23.447
			H71.94c-24.001,0-43.526,19.525-43.526,43.526v31.57c0,24.001,19.525,43.526,43.526,43.526h3.012l41.063,297.432
			c1.131,8.189,8.13,14.288,16.397,14.288h247.17c8.267,0,15.266-6.1,16.397-14.288l41.063-297.432h3.014
			c24.001,0,43.526-19.525,43.526-43.526v-31.57C483.586,101.181,464.061,81.654,440.06,81.654z M176.553,58.208
			c0-6.54,5.32-11.861,11.861-11.861h135.172c6.54,0,11.861,5.32,11.861,11.861v23.447H176.553V58.208z M193.467,437.286
			c-8.098,0-15.175-5.947-16.363-14.195l-24.482-170.015c-1.302-9.048,4.975-17.439,14.024-18.742
			c9.055-1.308,17.439,4.975,18.742,14.024l24.482,170.015C211.302,428.317,203.602,437.286,193.467,437.286z M271.701,420.731
			c0,9.141-7.411,16.552-16.552,16.552c-9.141,0-16.552-7.411-16.552-16.552V250.717c0-9.141,7.411-16.552,16.552-16.552
			c9.141,0,16.552,7.411,16.552,16.552V420.731z M359.379,253.076l-24.482,170.015c-1.303,9.054-9.702,15.328-18.742,14.024
			c-9.048-1.302-15.327-9.694-14.024-18.742l24.482-170.015c1.302-9.047,9.71-15.327,18.742-14.024
			C354.403,235.636,360.681,244.027,359.379,253.076z"/>
	</g>
</g>
</svg>